# AST/ASF file generated using VICON BodyLanguage
# -----------------------------------------------
:version 1.10
:name VICON
:units
  mass 1.0
  length 0.45
  angle deg
:documentation
   .ast/.asf automatically generated from VICON data using
   VICON BodyBuilder and BodyLanguage model FoxedUp or BRILLIANT.MOD
:root
   order TX TY TZ RX RY RZ
   axis XYZ
   position 0 0 0  
   orientation 0 -0 0 
:bonedata
  begin
     id 1 
     name lhipjoint
     direction 0.500677 -0.737119 0.453848 
     length 2.34727 
     axis 0 -0 0  XYZ
  end
  begin
     id 2 
     name lfemur
     direction 0.34202 -0.939693 0  
     length 7.53653  
     axis 0 -0 20  XYZ
    dof rx ry rz
    limits (-160.0 20.0)
           (-70.0 70.0)
           (-60.0 70.0)
  end
  begin
     id 3 
     name ltibia
     direction 0.34202 -0.939693 0   
     length 6.85572   
     axis 0 -0 20   XYZ
    dof rx
    limits (-10.0 170.0)
  end
  begin
     id 4 
     name lfoot
     direction 0.155313 -0.426718 0.890949   
     length 2.18324   
     axis -90 -1.13533e-015 20   XYZ
    dof rx rz
    limits (-45.0 90.0)
           (-70.0 20.0)
  end
  begin
     id 5 
     name ltoes
     direction 1.53474e-011 -4.21647e-011 1   
     length 1.06748   
     axis -90 -1.13533e-015 20   XYZ
    dof rx
    limits (-90.0 20.0)
  end
  begin
     id 6 
     name rhipjoint
     direction -0.632471 -0.659587 0.406111   
     length 2.62319  
     axis 0 -0 0  XYZ 
  end
  begin
     id 7 
     name rfemur
     direction -0.34202 -0.939693 0   
     length 7.21735   
     axis 0 -0 -20   XYZ
    dof rx ry rz
    limits (-160.0 20.0)
           (-70.0 70.0)
           (-70.0 60.0)
  end
  begin
     id 8 
     name rtibia
     direction -0.34202 -0.939693 0   
     length 7.02558   
     axis 0 -0 -20   XYZ
    dof rx
    limits (-10.0 170.0)
 end
 begin
     id 9 
     name rfoot
     direction -0.16057 -0.441164 0.882945   
     length 2.10014  
     axis -90 1.13533e-015 -20   XYZ
    dof rx rz
    limits (-45.0 90.0)
           (-20.0 70.0)
  end
  begin
     id 10 
     name rtoes
     direction -1.53553e-011 -4.2192e-011 1   
     length 1.02554   
     axis -90 1.13533e-015 -20   XYZ
    dof rx
    limits (-90.0 20.0)
  end
  begin
     id 11 
     name lowerback
     direction 0.0401429 0.998861 -0.0258085   
     length 1.80848   
     axis 0 -0 0   XYZ
    dof rx ry rz
    limits (-20.0 45.0)
           (-30.0 30.0)
           (-30.0 30.0)
  end
  begin
     id 12 
     name upperback
     direction -0.0130978 0.999914 -0.000352645   
     length 1.8116   
     axis 0 -0 0   XYZ
    dof rx ry rz
    limits (-20.0 45.0)
           (-30.0 30.0)
           (-30.0 30.0)
  end
  begin
     id 13 
     name thorax
     direction -0.0300198 0.999453 0.0138573   
     length 1.81778   
     axis 0 -0 0   XYZ
    dof rx ry rz
    limits (-20.0 45.0)
           (-30.0 30.0)
           (-30.0 30.0)
  end
  begin
     id 14 
     name lowerneck
     direction -0.0401726 0.999191 -0.00173647   
     length 2.10594   
     axis 0 -0 0   XYZ
    dof rx ry rz
    limits (-20.0 45.0)
           (-30.0 30.0)
           (-30.0 30.0)
  end
  begin
     id 15 
     name upperneck
     direction 0.0119835 0.998501 0.0534085   
     length 2.07325   
     axis 0 -0 0   XYZ
    dof rx ry rz
    limits (-20.0 45.0)
           (-30.0 30.0)
           (-30.0 30.0)
  end
  begin
     id 16
     name head
     direction 0.00628309 0.999826 0.0175921  
     length 2.15096  
     axis 0 -0 0   XYZ
    dof rx ry rz
    limits (-20.0 45.0)
           (-30.0 30.0)
           (-30.0 30.0)
  end
  begin
     id 17 
     name lclavicle
     direction 0.895501 0.429681 -0.115981  
     length 4.18092  
     axis 0 -0 0   XYZ
    dof ry rz
    limits (-20.0 10.0)
           (0.0 20.0)
  end
  begin
     id 18 
     name lhumerus
     direction 1 -4.48961e-011 -3.38433e-028   
     length 5.77237   
     axis 180 -30 -90   XYZ
    dof rx ry rz
    limits (-60.0 90.0)
           (-90.0 90.0)
           (-90.0 90.0)
  end
  begin
     id 19
     name lradius
     direction 1 -4.4901e-011 1.11983e-026   
     length 2.91878   
     axis 180 -30 -90   XYZ
    dof rx
    limits (-10.0 170.0)
  end
  begin
     id 20
     name lwrist
     direction 1 -4.48934e-011 1.88176e-026   
     length 1.45939   
     axis -1.23311e-014 90 90   XYZ
    dof ry
    limits (-180.0 0.0)
 end
  begin
     id 21 
     name lhand
     direction 1 -4.4895e-011 3.76352e-026   
     length 1.06566   
     axis -2.40147e-014 90 90   XYZ
    dof rx rz
    limits (-90.0 90.0)
           (-45.0 45.0)
  end
  begin
     id 22 
     name lfingers
     direction 1 -4.49005e-011 7.52705e-026   
     length 0.859162   
     axis -4.80295e-014 90 90   XYZ
    dof rx
    limits (0.0 90.0)
  end
  begin
     id 23
     name lthumb
     direction 0.707107 -6.34885e-011 0.707107   
     length 1.23359   
     axis -90 45 -9.86935e-015   XYZ
    dof rx rz
    limits (-45.0 45.0)
           (-45.0 45.0)
  end
  begin
     id 24 
     name rclavicle
     direction -0.91006 0.40451 -0.0903492   
     length 4.23293  
     axis 0 -0 0   XYZ 
    dof ry rz
    limits (-10.0 20.0)
           (-20.0 0.0)
  end
  begin
     id 25 
     name rhumerus
     direction -1 -4.4897e-011 1.7415e-027  
     length 5.49854   
     axis 180 30 90   XYZ
    dof rx ry rz
    limits (-90.0 60.0)
           (-90.0 90.0)
           (-90.0 90.0)
  end
  begin
     id 26 
     name rradius
     direction -1 -4.48963e-011 1.21259e-026   
     length 3.1186   
     axis 180 30 90   XYZ
    dof rx
    limits (-10.0 170.0)
  end
  begin
     id 27 
     name rwrist
     direction -1 -4.48967e-011 1.88176e-026   
     length 1.5593   
     axis -1.23311e-014 -90 -90   XYZ
    dof ry
    limits (-180.0 0.0)
  end
  begin
     id 28
     name rhand
     direction -1 -4.4895e-011 3.76352e-026   
     length 0.71207   
     axis -2.40147e-014 -90 -90   XYZ
    dof rx rz
    limits (-90.0 90.0)
           (-45.0 45.0)
  end
  begin
     id 29
     name rfingers
     direction -1 -4.49005e-011 7.52705e-026   
     length 0.574089   
     axis -4.80295e-014 -90 -90   XYZ
    dof rx
    limits (0.0 90.0)
  end
  begin
     id 30
     name rthumb
     direction -0.707107 -6.34982e-011 0.707107   
     length 0.824281   
     axis -90 -45 9.86935e-015   XYZ
    dof rx rz
    limits (-45.0 45.0)
           (-45.0 45.0)
  end
:hierarchy
  begin
    root lhipjoint rhipjoint lowerback
    lhipjoint lfemur
    lfemur ltibia
    ltibia lfoot
    lfoot ltoes
    rhipjoint rfemur
    rfemur rtibia
    rtibia rfoot
    rfoot rtoes
    lowerback upperback
    upperback thorax
    thorax lowerneck lclavicle rclavicle
    lowerneck upperneck
    upperneck head
    lclavicle lhumerus
    lhumerus lradius
    lradius lwrist
    lwrist lhand lthumb
    lhand lfingers
    rclavicle rhumerus
    rhumerus rradius
    rradius rwrist
    rwrist rhand rthumb
    rhand rfingers
  end

#!OML:ASF C:\ViconDB\ViconDB\414\Spring2016\042216\male.ASF
:FULLY-SPECIFIED
:DEGREES
546
root 16.7207 17.5821 11.2889 528.846 63.769 891.092
lowerback 2.84817 -1.59475 5.10076
upperback -0.138415 -1.92252 0.647873
thorax -1.88677 -0.997958 -2.10325
lowerneck -2.09733 10.3338 0.590183
upperneck -5.07576 13.7563 -6.21661
head -0.735035 6.99629 -1.97691
rclavicle -1.9307e-014 1.27222e-014
rhumerus -23.1149 -7.92127 -78.677
rradius 29.1366
rwrist 30.8551
rhand 11.7432 -20.3093
rfingers 7.12502
rthumb 36.7778 -46.4309
lclavicle -1.9307e-014 1.27222e-014
lhumerus -27.8999 5.42704 93.0203
lradius 35.0716
lwrist -13.8247
lhand -8.08676 13.8568
lfingers 7.12502
lthumb 17.8254 43.0598
rfemur 3.30528 10.896 19.6484
rtibia 21.4419
rfoot -25.5514 -18.378
rtoes -6.1113
lfemur -14.8005 -4.85408 -21.015
ltibia 35.1291
lfoot -20.8029 24.6939
ltoes -8.20501
547
root 16.8064 17.5716 11.2991 529.567 63.248 892.056
lowerback 3.01784 -1.57666 5.28501
upperback -0.101967 -1.88246 0.609763
thorax -1.94893 -0.980446 -2.24332
lowerneck -2.00381 10.1397 0.521522
upperneck -5.25339 13.4917 -6.27699
head -0.815801 6.87209 -2.00233
rclavicle -1.17283e-014 1.11319e-014
rhumerus -22.5939 -8.71177 -78.2908
rradius 28.72
rwrist 31.8664
rhand 11.9904 -20.1553
rfingers 7.12502
rthumb 37.0117 -46.2167
lclavicle -1.17283e-014 1.11319e-014
lhumerus -27.9919 5.9781 92.6251
lradius 34.8882
lwrist -13.8039
lhand -8.13805 13.8863
lfingers 7.12502
lthumb 17.776 43.0938
rfemur 4.04725 10.4945 20.2758
rtibia 20.9811
rfoot -25.4293 -18.401
rtoes -6.2468
lfemur -15.4009 -4.8501 -20.8371
ltibia 34.6279
lfoot -20.6364 23.9712
ltoes -8.15479
548
root 16.8741 17.5648 11.3182 530.421 62.2708 892.729
lowerback 3.0949 -1.71093 5.18909
upperback -0.253469 -2.05674 0.57873
thorax -2.15992 -1.07465 -2.20724
lowerneck -2.13758 10.0624 0.41588
upperneck -5.11515 13.3963 -6.19364
head -0.766181 6.82036 -1.94749
rclavicle -1.00635e-014 6.36111e-015
rhumerus -22.0315 -9.07494 -77.9989
rradius 28.1404
rwrist 32.5262
rhand 12.1059 -20.0822
rfingers 7.12502
rthumb 37.1208 -46.1153
lclavicle -1.00635e-014 6.36111e-015
lhumerus -28.0762 6.74377 92.18
lradius 34.65
lwrist -14.1178
lhand -8.14945 13.8564
lfingers 7.12502
lthumb 17.765 43.0649
rfemur 4.2849 9.621 20.5613
rtibia 20.5464
rfoot -25.2249 -18.3835
rtoes -6.17132
lfemur -16.5236 -5.11019 -20.8829
ltibia 34.1329
lfoot -20.3547 23.1019
ltoes -8.94334
549
root 16.955 17.5666 11.3425 530.728 61.5262 892.929
lowerback 3.15359 -1.69885 4.83388
upperback -0.338201 -2.05222 0.508424
thorax -2.26943 -1.07372 -2.07817
lowerneck -2.06464 9.87675 0.324155
upperneck -5.17359 13.1467 -6.24691
head -0.807265 6.70095 -1.96005
rclavicle -6.26917e-014 1.51076e-014
rhumerus -21.5964 -9.56822 -77.7223
rradius 27.6829
rwrist 32.1156
rhand 11.1117 -20.7085
rfingers 7.12502
rthumb 36.18 -46.9806
lclavicle -6.26917e-014 1.51076e-014
lhumerus -28.1848 6.94693 91.9316
lradius 34.4681
lwrist -13.9745
lhand -8.20417 13.8484
lfingers 7.12502
lthumb 17.7124 43.0617
rfemur 4.72828 9.39042 20.8364
rtibia 20.0046
rfoot -25.1568 -18.75
rtoes -6.38472
lfemur -17.4446 -5.31856 -21.0903
ltibia 33.6735
lfoot -20.2481 22.3271
ltoes -9.28597
550
root 17.0425 17.5538 11.3457 531.425 61.0086 893.795
lowerback 3.2072 -1.71497 4.99635
upperback -0.32254 -2.06498 0.477798
thorax -2.2915 -1.08233 -2.19837
lowerneck -1.92749 9.8022 0.448624
upperneck -5.29739 13.0374 -6.41549
head -0.853173 6.65148 -2.04615
rclavicle 2.75814e-015 -1.59028e-015
rhumerus -21.1491 -10.0851 -77.4327
rradius 27.2682
rwrist 33.0183
rhand 11.3985 -20.3446
rfingers 7.12502
rthumb 36.4515 -46.5489
lclavicle 2.75814e-015 -1.59028e-015
lhumerus -28.3786 7.84558 91.4262
lradius 34.2602
lwrist -14.2386
lhand -8.33082 13.7965
lfingers 7.12502
lthumb 17.5905 43.0207
rfemur 5.37967 8.66958 21.3569
rtibia 19.4441
rfoot -24.7389 -18.6533
rtoes -7.16447
lfemur -18.0734 -5.47026 -20.9498
ltibia 33.2298
lfoot -20.1537 21.4628
ltoes -9.21565
551
root 17.1299 17.5582 11.3517 532.499 60.6084 894.898
lowerback 3.15354 -1.67945 5.37704
upperback -0.34823 -2.00566 0.43513
thorax -2.29873 -1.05818 -2.45948
lowerneck -2.02195 9.63775 0.338293
upperneck -5.29062 12.8217 -6.27939
head -0.858897 6.54217 -1.98372
rclavicle 3.18304e-014 -1.35174e-014
rhumerus -20.7318 -10.5504 -77.2933
rradius 26.8621
rwrist 33.4903
rhand 11.098 -20.7309
rfingers 7.12502
rthumb 36.167 -47.0063
lclavicle 3.18304e-014 -1.35174e-014
lhumerus -28.5133 8.45293 90.8762
lradius 34.0449
lwrist -14.5288
lhand -8.06956 13.819
lfingers 7.12502
lthumb 17.8419 43.0206
rfemur 5.90502 8.45057 22.0867
rtibia 18.7486
rfoot -24.3922 -18.8044
rtoes -7.44909
lfemur -18.8659 -5.65195 -20.6067
ltibia 32.7897
lfoot -20.1718 20.505
ltoes -9.76066
552
root 17.2163 17.552 11.3559 533.379 60.307 895.905
lowerback 3.16804 -1.63432 5.67067
upperback -0.313037 -1.93229 0.453862
thorax -2.27408 -1.0231 -2.60869
lowerneck -2.07668 9.52059 0.151766
upperneck -5.3522 12.6687 -6.23839
head -0.888695 6.47029 -1.9433
rclavicle 2.25869e-014 -7.15625e-015
rhumerus -20.2436 -11.0591 -77.0671
rradius 26.4581
rwrist 34.3681
rhand 11.1115 -20.6668
rfingers 7.12502
rthumb 36.1798 -46.9389
lclavicle 2.25869e-014 -7.15625e-015
lhumerus -28.6347 8.87844 90.5337
lradius 33.9165
lwrist -14.3129
lhand -8.13723 14.1319
lfingers 7.12502
lthumb 17.7768 43.3394
rfemur 6.59208 8.17293 22.7838
rtibia 17.9057
rfoot -24.1045 -18.7698
rtoes -7.26074
lfemur -19.4987 -5.78975 -20.3271
ltibia 32.4141
lfoot -20.1359 19.775
ltoes -9.94901
553
root 17.307 17.5512 11.3606 534.065 60.0529 896.592
lowerback 3.08278 -1.56018 5.82624
upperback -0.282741 -1.83686 0.378971
thorax -2.19406 -0.975547 -2.78122
lowerneck -2.18901 9.33776 0.0135856
upperneck -5.45973 12.4276 -6.15476
head -0.925496 6.35326 -1.89654
rclavicle -2.69602e-014 7.95139e-016
rhumerus -19.7883 -11.4005 -77.0509
rradius 26.1006
rwrist 34.8176
rhand 11.0921 -20.7244
rfingers 7.12502
rthumb 36.1614 -47.0011
lclavicle -2.69602e-014 7.95139e-016
lhumerus -28.7725 9.55468 89.96
lradius 33.6074
lwrist -14.7247
lhand -8.29753 13.8411
lfingers 7.12502
lthumb 17.6225 43.0624
rfemur 7.25996 8.14129 23.3717
rtibia 16.9555
rfoot -23.8126 -19.0006
rtoes -7.20477
lfemur -20.2238 -5.8785 -20.157
ltibia 32.0063
lfoot -19.9396 19.1993
ltoes -9.94544
554
root 17.3994 17.5574 11.3648 535.14 59.8851 897.609
lowerback 2.86244 -1.4758 6.12525
upperback -0.284396 -1.72918 0.358885
thorax -2.07205 -0.921966 -2.98069
lowerneck -2.05166 9.23773 0.132834
upperneck -5.70099 12.2803 -6.3719
head -1.00816 6.28934 -2.00167
rclavicle 5.09634e-014 6.36111e-015
rhumerus -19.3462 -11.9331 -77.0413
rradius 25.7984
rwrist 35.3695
rhand 10.9721 -20.8977
rfingers 7.12502
rthumb 36.0477 -47.2024
lclavicle 5.09634e-014 6.36111e-015
lhumerus -28.9699 9.76848 89.5132
lradius 33.4136
lwrist -14.5987
lhand -8.28185 13.9936
lfingers 7.12502
lthumb 17.6376 43.2136
rfemur 7.86328 8.12495 24.1257
rtibia 15.8517
rfoot -23.1842 -19.2392
rtoes -7.68817
lfemur -21.0517 -6.21801 -19.6952
ltibia 31.6414
lfoot -20.0647 18.4539
ltoes -10.4292
555
root 17.4962 17.5609 11.367 535.979 59.9627 898.487
lowerback 2.79309 -1.35853 6.3035
upperback -0.270777 -1.57135 0.372321
thorax -2.00832 -0.842687 -3.07661
lowerneck -2.2257 9.1346 -0.0671253
upperneck -5.65213 12.1526 -6.24601
head -0.987703 6.22451 -1.9206
rclavicle -5.59579e-014 2.94201e-014
rhumerus -18.9628 -12.132 -77.0424
rradius 25.5556
rwrist 36.2291
rhand 11.2087 -20.719
rfingers 7.12502
rthumb 36.2718 -46.9683
lclavicle -5.59579e-014 2.94201e-014
lhumerus -29.2227 11.1648 88.725
lradius 33.0717
lwrist -15.7022
lhand -8.15352 13.5707
lfingers 7.12502
lthumb 17.7611 42.7796
rfemur 8.6311 8.35867 24.8719
rtibia 14.6851
rfoot -22.5659 -19.5062
rtoes -8.06783
lfemur -21.6783 -6.39195 -19.283
ltibia 31.2589
lfoot -19.9662 17.9732
ltoes -10.4557
556
root 17.5889 17.5756 11.3622 536.824 60.0796 899.423
lowerback 2.66469 -1.20781 6.68675
upperback -0.161761 -1.37188 0.331834
thorax -1.81394 -0.738525 -3.34711
lowerneck -2.11078 9.02697 -0.046008
upperneck -5.99916 11.9952 -6.46072
head -1.10719 6.16125 -2.0129
rclavicle 8.89561e-015 7.95139e-016
rhumerus -18.4585 -12.0137 -77.2298
rradius 25.3508
rwrist 36.0474
rhand 11.0362 -21.1037
rfingers 7.12502
rthumb 36.1085 -47.3935
lclavicle 8.89561e-015 7.95139e-016
lhumerus -29.4436 11.8258 88.1757
lradius 32.98
lwrist -15.9567
lhand -8.07591 14.0894
lfingers 7.12502
lthumb 17.8358 43.2915
rfemur 9.41604 8.10098 25.4752
rtibia 13.4558
rfoot -21.6267 -19.4002
rtoes -8.7578
lfemur -22.2723 -6.76616 -18.7118
ltibia 30.8601
lfoot -20.1852 17.1899
ltoes -9.36667
557
root 17.6742 17.5763 11.3651 537.742 60.0971 900.36
lowerback 2.7488 -1.11631 7.01101
upperback -0.187588 -1.23218 0.279013
thorax -1.88151 -0.674965 -3.58841
lowerneck -2.05697 8.93503 -0.0663799
upperneck -6.19126 11.8656 -6.48714
head -1.1811 6.10349 -2.03026
rclavicle 2.61899e-014 1.98785e-015
rhumerus -18.0157 -11.7639 -77.4328
rradius 25.0447
rwrist 35.7303
rhand 10.5339 -21.0992
rfingers 7.12502
rthumb 35.6326 -47.5051
lclavicle 2.61899e-014 1.98785e-015
lhumerus -29.7552 12.5591 87.4246
lradius 32.6991
lwrist -16.8246
lhand -7.6233 13.8964
lfingers 7.12502
lthumb 18.2713 43.0582
rfemur 10.1254 7.90969 26.1141
rtibia 12.1973
rfoot -20.6422 -19.3574
rtoes -9.33149
lfemur -22.9204 -7.11897 -18.2165
ltibia 30.4272
lfoot -19.8806 16.7945
ltoes -9.49216
558
root 17.7658 17.5839 11.3744 537.953 60.0442 900.464
lowerback 2.78269 -1.11205 6.63324
upperback -0.220415 -1.23897 0.218209
thorax -1.92787 -0.678387 -3.43838
lowerneck -2.00544 8.96955 -0.123721
upperneck -6.32771 11.9066 -6.53097
head -1.2326 6.13038 -2.04342
rclavicle 1.717e-014 9.14409e-015
rhumerus -17.7319 -11.8208 -77.6312
rradius 25.1891
rwrist 36.4281
rhand 10.9527 -21.1297
rfingers 7.12502
rthumb 36.0294 -47.439
lclavicle 1.717e-014 9.14409e-015
lhumerus -30.2061 14.0333 86.4582
lradius 32.4352
lwrist -18.3842
lhand -7.16841 13.1037
lfingers 7.12502
lthumb 18.7088 42.224
rfemur 10.938 7.92381 26.3884
rtibia 10.782
rfoot -19.7512 -19.5487
rtoes -9.76505
lfemur -23.5514 -7.69107 -18.0574
ltibia 29.9994
lfoot -19.761 16.2947
ltoes -8.77719
559
root 17.8558 17.5882 11.371 538.553 60.1429 901.114
lowerback 2.86607 -1.09088 6.68144
upperback -0.214627 -1.20316 0.201401
thorax -1.9663 -0.662194 -3.48326
lowerneck -1.95788 8.99591 -0.106491
upperneck -6.43347 11.9349 -6.65239
head -1.26498 6.15005 -2.091
rclavicle -2.71838e-014 6.75868e-015
rhumerus -17.3364 -12.1019 -77.9023
rradius 25.0299
rwrist 37.1577
rhand 10.9126 -20.8165
rfingers 7.12502
rthumb 35.9914 -47.1352
lclavicle -2.71838e-014 6.75868e-015
lhumerus -30.6168 14.722 85.8957
lradius 32.253
lwrist -17.581
lhand -7.89855 12.9371
lfingers 7.12502
lthumb 18.0065 42.1236
rfemur 11.7032 7.17869 26.7382
rtibia 9.58508
rfoot -18.7592 -18.8588
rtoes -10.5528
lfemur -24.0205 -7.94459 -17.6934
ltibia 29.5079
lfoot -19.414 15.8481
ltoes -8.99522
560
root 17.9409 17.6017 11.3654 539.397 60.8439 901.76
lowerback 2.80804 -0.848966 6.89882
upperback -0.260878 -0.88102 0.0571908
thorax -1.95195 -0.506261 -3.77118
lowerneck -2.00476 8.94491 -0.0576991
upperneck -6.58801 11.8627 -6.61624
head -1.3081 6.11532 -2.09184
rclavicle -9.87711e-016 6.75868e-015
rhumerus -16.9097 -11.8955 -78.41
rradius 24.9871
rwrist 37.2449
rhand 11.2356 -20.946
rfingers 7.12502
rthumb 36.2973 -47.1889
lclavicle -9.87711e-016 6.75868e-015
lhumerus -31.0496 14.8667 85.3956
lradius 32.1517
lwrist -15.9362
lhand -9.07566 13.3357
lfingers 7.12502
lthumb 16.8736 42.6226
rfemur 12.2363 7.08423 26.9728
rtibia 8.19593
rfoot -17.6166 -18.2577
rtoes -10.9081
lfemur -24.695 -8.25635 -17.0759
ltibia 29.0355
lfoot -19.2915 15.7709
ltoes -8.19086
